<svg width="114" height="60" viewBox="0 0 114 60" fill="none" xmlns="http://www.w3.org/2000/svg">
<path d="M35.4169 16.0691L53.4169 2.66771C55.5433 1.08454 58.4567 1.08454 60.5831 2.66771L78.5831 16.0691C80.1039 17.2014 81 18.9858 81 20.8818V34.7468C81 36.6428 80.1039 38.4272 78.5831 39.5594L60.5831 52.9609C58.4567 54.544 55.5433 54.544 53.4169 52.9609L35.4169 39.5594C33.8961 38.4272 33 36.6428 33 34.7468V20.8818C33 18.9858 33.8961 17.2014 35.4169 16.0691Z" fill="#4783BB"/>
<path d="M36.0141 16.8712L54.0141 3.46982C55.7861 2.15051 58.2139 2.15051 59.9859 3.46982L77.9859 16.8712C79.2532 17.8148 80 19.3018 80 20.8818V34.7468C80 36.3268 79.2532 37.8138 77.9859 38.7573L59.9859 52.1588C58.2139 53.4781 55.7861 53.4781 54.0141 52.1588L36.0141 38.7573C34.7468 37.8138 34 36.3268 34 34.7468V20.8818C34 19.3018 34.7468 17.8148 36.0141 16.8712Z" stroke="black" stroke-opacity="0.65" stroke-width="2"/>
<path d="M6.36335 16.1869L23.9684 2.77126C26.1165 1.13431 29.0936 1.13431 31.2417 2.77126L48.8467 16.1869C50.336 17.3218 51.2101 19.0868 51.2101 20.9592V35.0408C51.2101 36.9132 50.336 38.6782 48.8467 39.8131L31.2417 53.2287C29.0936 54.8657 26.1165 54.8657 23.9684 53.2287L6.36335 39.8131C4.87409 38.6782 4 36.9132 4 35.0408V20.9592C4 19.0868 4.87409 17.3218 6.36335 16.1869Z" fill="#4783BB"/>
<path d="M6.96946 16.9823L24.5745 3.56664C26.3646 2.20252 28.8455 2.20252 30.6356 3.56664L48.2406 16.9823C49.4817 17.928 50.2101 19.3989 50.2101 20.9592V35.0408C50.2101 36.6011 49.4817 38.072 48.2406 39.0177L30.6356 52.4334C28.8455 53.7975 26.3646 53.7975 24.5745 52.4334L6.96946 39.0177C5.72841 38.072 5 36.6011 5 35.0408V20.9592C5 19.3989 5.72841 17.928 6.96946 16.9823Z" stroke="black" stroke-opacity="0.65" stroke-width="2"/>
<g filter="url(#filter0_f_5_79)">
<path d="M8.4538 20.0386L27.6051 5.43031L46.7563 20.0386V36.3008H26.5H8.4538V20.0386Z" fill="#2568A7"/>
</g>
<g filter="url(#filter1_f_5_79)">
<path d="M46.7563 36.9331L27.6051 51.5415L8.45383 36.9331L8.45383 20.671L28.7101 20.671L46.7564 20.671L46.7563 36.9331Z" fill="#2568A7"/>
<path d="M45.7564 21.671L45.7563 36.4382L27.6051 50.2837L9.45383 36.4382L9.45383 21.671L28.7101 21.671L45.7564 21.671Z" stroke="black" stroke-opacity="0.65" stroke-width="2"/>
</g>
<path d="M65.1533 16.1869L82.7583 2.77126C84.9064 1.13431 87.8835 1.13431 90.0316 2.77126L107.637 16.1869C109.126 17.3218 110 19.0868 110 20.9592V35.0408C110 36.9132 109.126 38.6782 107.637 39.8131L90.0316 53.2287C87.8835 54.8657 84.9064 54.8657 82.7583 53.2287L65.1533 39.8131C63.664 38.6782 62.7899 36.9132 62.7899 35.0408V20.9592C62.7899 19.0868 63.664 17.3218 65.1533 16.1869Z" fill="#4783BB"/>
<path d="M65.7594 16.9823L83.3644 3.56664C85.1545 2.20252 87.6354 2.20252 89.4255 3.56664L107.031 16.9823C108.272 17.928 109 19.3989 109 20.9592V35.0408C109 36.6011 108.272 38.072 107.031 39.0177L89.4255 52.4334C87.6354 53.7975 85.1545 53.7975 83.3644 52.4334L65.7594 39.0177C64.5183 38.072 63.7899 36.6011 63.7899 35.0408V20.9592C63.7899 19.3989 64.5183 17.928 65.7594 16.9823Z" stroke="black" stroke-opacity="0.65" stroke-width="2"/>
<g filter="url(#filter2_f_5_79)">
<path d="M67.2437 20.0386L86.395 5.43031L105.546 20.0386V36.3008H86.395H67.2437V20.0386Z" fill="#2568A7"/>
</g>
<g filter="url(#filter3_f_5_79)">
<path d="M105.546 36.9331L86.3949 51.5415L67.2437 36.9331L67.2437 20.671L86.3949 20.671L105.546 20.671L105.546 36.9331Z" fill="#2568A7"/>
<path d="M104.546 21.671L104.546 36.4382L86.3949 50.2837L68.2437 36.4382L68.2437 21.671L86.3949 21.671L104.546 21.671Z" stroke="black" stroke-opacity="0.65" stroke-width="2"/>
</g>
<g filter="url(#filter4_f_5_79)">
<path d="M37.8488 20.0387L57 5.43031L76.1513 20.0387V36.3008H55.5H37.8488V20.0387Z" fill="#2568A7"/>
<g filter="url(#filter5_f_5_79)">
<path d="M76.1512 36.9331L57 51.5415L37.8487 36.9331L37.8487 20.671L58.5 20.671L76.1512 20.671L76.1512 36.9331Z" fill="#2568A7"/>
<path d="M75.1512 21.671L75.1512 36.4382L57 50.2838L38.8487 36.4382L38.8487 21.671L58.5 21.671L75.1512 21.671Z" stroke="black" stroke-opacity="0.65" stroke-width="2"/>
</g>
</g>
<g filter="url(#filter6_d_5_79)">
<mask id="path-16-outside-1_5_79" maskUnits="userSpaceOnUse" x="13" y="15" width="87" height="22" fill="black">
<rect fill="white" x="13" y="15" width="87" height="22"/>
<path d="M18.608 35H15.056V31.712L19.736 26.576L15.176 21.56V18.296H18.728V20.912L21.8 24.272L24.848 20.912V18.296H28.4V21.56L23.864 26.576L28.544 31.712V35H24.992V32.384L21.8 28.856L18.608 32.384V35ZM32.2076 21.968H39.2876L41.3996 24.08V32.888L39.2876 35H32.2076L30.1196 32.888V24.08L32.2076 21.968ZM37.9676 31.88V25.088H33.5516V31.88H37.9676ZM50.4656 35H45.8336L43.7216 32.888V21.968H47.1536V31.808H50.6576L51.5456 31.016V21.968H54.9776V35H51.9296V33.512L50.4656 35ZM60.8008 35H57.3688V17.168H60.8008V35ZM62.1312 21.488V18.296H74.4672V21.488H70.0752V35H66.5232V21.488H62.1312ZM82.193 32.216V30.464H85.505V32.888L83.417 35H76.601L74.513 32.888V24.08L76.601 21.968H83.417L85.505 24.08V29.12H77.873V32.216H82.193ZM82.193 24.752H77.873V27.392H82.193V24.752ZM95.1326 31.88V29.792H98.4446V32.888L96.3566 35H89.7326L87.6446 32.888V24.08L89.7326 21.968H96.3566L98.4446 24.08V27.152H95.1326V25.064H91.0046V31.88H95.1326Z"/>
</mask>
<path d="M18.608 35H15.056V31.712L19.736 26.576L15.176 21.56V18.296H18.728V20.912L21.8 24.272L24.848 20.912V18.296H28.4V21.56L23.864 26.576L28.544 31.712V35H24.992V32.384L21.8 28.856L18.608 32.384V35ZM32.2076 21.968H39.2876L41.3996 24.08V32.888L39.2876 35H32.2076L30.1196 32.888V24.08L32.2076 21.968ZM37.9676 31.88V25.088H33.5516V31.88H37.9676ZM50.4656 35H45.8336L43.7216 32.888V21.968H47.1536V31.808H50.6576L51.5456 31.016V21.968H54.9776V35H51.9296V33.512L50.4656 35ZM60.8008 35H57.3688V17.168H60.8008V35ZM62.1312 21.488V18.296H74.4672V21.488H70.0752V35H66.5232V21.488H62.1312ZM82.193 32.216V30.464H85.505V32.888L83.417 35H76.601L74.513 32.888V24.08L76.601 21.968H83.417L85.505 24.08V29.12H77.873V32.216H82.193ZM82.193 24.752H77.873V27.392H82.193V24.752ZM95.1326 31.88V29.792H98.4446V32.888L96.3566 35H89.7326L87.6446 32.888V24.08L89.7326 21.968H96.3566L98.4446 24.08V27.152H95.1326V25.064H91.0046V31.88H95.1326Z" fill="white" shape-rendering="crispEdges"/>
<path d="M18.608 35V36.5H20.108V35H18.608ZM15.056 35H13.556V36.5H15.056V35ZM15.056 31.712L13.9473 30.7017L13.556 31.1311V31.712H15.056ZM19.736 26.576L20.8447 27.5863L21.7643 26.5772L20.8459 25.567L19.736 26.576ZM15.176 21.56H13.676V22.1399L14.0661 22.569L15.176 21.56ZM15.176 18.296V16.796H13.676V18.296H15.176ZM18.728 18.296H20.228V16.796H18.728V18.296ZM18.728 20.912H17.228V21.4944L17.621 21.9242L18.728 20.912ZM21.8 24.272L20.693 25.2842L21.8043 26.4997L22.911 25.2798L21.8 24.272ZM24.848 20.912L25.959 21.9198L26.348 21.491V20.912H24.848ZM24.848 18.296V16.796H23.348V18.296H24.848ZM28.4 18.296H29.9V16.796H28.4V18.296ZM28.4 21.56L29.5126 22.5661L29.9 22.1376V21.56H28.4ZM23.864 26.576L22.7514 25.5699L21.8382 26.5798L22.7553 27.5863L23.864 26.576ZM28.544 31.712H30.044V31.1311L29.6527 30.7017L28.544 31.712ZM28.544 35V36.5H30.044V35H28.544ZM24.992 35H23.492V36.5H24.992V35ZM24.992 32.384H26.492V31.8061L26.1043 31.3776L24.992 32.384ZM21.8 28.856L22.9123 27.8496L21.8 26.6202L20.6877 27.8496L21.8 28.856ZM18.608 32.384L17.4957 31.3776L17.108 31.8061V32.384H18.608ZM18.608 33.5H15.056V36.5H18.608V33.5ZM16.556 35V31.712H13.556V35H16.556ZM16.1647 32.7223L20.8447 27.5863L18.6273 25.5657L13.9473 30.7017L16.1647 32.7223ZM20.8459 25.567L16.2859 20.551L14.0661 22.569L18.6261 27.585L20.8459 25.567ZM16.676 21.56V18.296H13.676V21.56H16.676ZM15.176 19.796H18.728V16.796H15.176V19.796ZM17.228 18.296V20.912H20.228V18.296H17.228ZM17.621 21.9242L20.693 25.2842L22.907 23.2598L19.835 19.8998L17.621 21.9242ZM22.911 25.2798L25.959 21.9198L23.737 19.9042L20.689 23.2642L22.911 25.2798ZM26.348 20.912V18.296H23.348V20.912H26.348ZM24.848 19.796H28.4V16.796H24.848V19.796ZM26.9 18.296V21.56H29.9V18.296H26.9ZM27.2874 20.5539L22.7514 25.5699L24.9766 27.5821L29.5126 22.5661L27.2874 20.5539ZM22.7553 27.5863L27.4353 32.7223L29.6527 30.7017L24.9727 25.5657L22.7553 27.5863ZM27.044 31.712V35H30.044V31.712H27.044ZM28.544 33.5H24.992V36.5H28.544V33.5ZM26.492 35V32.384H23.492V35H26.492ZM26.1043 31.3776L22.9123 27.8496L20.6877 29.8624L23.8797 33.3904L26.1043 31.3776ZM20.6877 27.8496L17.4957 31.3776L19.7203 33.3904L22.9123 29.8624L20.6877 27.8496ZM17.108 32.384V35H20.108V32.384H17.108ZM32.2076 21.968V20.468H31.5812L31.1409 20.9134L32.2076 21.968ZM39.2876 21.968L40.3482 20.9073L39.9089 20.468H39.2876V21.968ZM41.3996 24.08H42.8996V23.4587L42.4602 23.0193L41.3996 24.08ZM41.3996 32.888L42.4602 33.9487L42.8996 33.5093V32.888H41.3996ZM39.2876 35V36.5H39.9089L40.3482 36.0607L39.2876 35ZM32.2076 35L31.1409 36.0546L31.5812 36.5H32.2076V35ZM30.1196 32.888H28.6196V33.5043L29.0529 33.9426L30.1196 32.888ZM30.1196 24.08L29.0529 23.0254L28.6196 23.4637V24.08H30.1196ZM37.9676 31.88V33.38H39.4676V31.88H37.9676ZM37.9676 25.088H39.4676V23.588H37.9676V25.088ZM33.5516 25.088V23.588H32.0516V25.088H33.5516ZM33.5516 31.88H32.0516V33.38H33.5516V31.88ZM32.2076 23.468H39.2876V20.468H32.2076V23.468ZM38.2269 23.0287L40.3389 25.1407L42.4602 23.0193L40.3482 20.9073L38.2269 23.0287ZM39.8996 24.08V32.888H42.8996V24.08H39.8996ZM40.3389 31.8273L38.2269 33.9393L40.3482 36.0607L42.4602 33.9487L40.3389 31.8273ZM39.2876 33.5H32.2076V36.5H39.2876V33.5ZM33.2743 33.9454L31.1863 31.8334L29.0529 33.9426L31.1409 36.0546L33.2743 33.9454ZM31.6196 32.888V24.08H28.6196V32.888H31.6196ZM31.1863 25.1346L33.2743 23.0226L31.1409 20.9134L29.0529 23.0254L31.1863 25.1346ZM39.4676 31.88V25.088H36.4676V31.88H39.4676ZM37.9676 23.588H33.5516V26.588H37.9676V23.588ZM32.0516 25.088V31.88H35.0516V25.088H32.0516ZM33.5516 33.38H37.9676V30.38H33.5516V33.38ZM50.4656 35V36.5H51.094L51.5348 36.052L50.4656 35ZM45.8336 35L44.7729 36.0607L45.2122 36.5H45.8336V35ZM43.7216 32.888H42.2216V33.5093L42.6609 33.9487L43.7216 32.888ZM43.7216 21.968V20.468H42.2216V21.968H43.7216ZM47.1536 21.968H48.6536V20.468H47.1536V21.968ZM47.1536 31.808H45.6536V33.308H47.1536V31.808ZM50.6576 31.808V33.308H51.2293L51.656 32.9274L50.6576 31.808ZM51.5456 31.016L52.544 32.1354L53.0456 31.6881V31.016H51.5456ZM51.5456 21.968V20.468H50.0456V21.968H51.5456ZM54.9776 21.968H56.4776V20.468H54.9776V21.968ZM54.9776 35V36.5H56.4776V35H54.9776ZM51.9296 35H50.4296V36.5H51.9296V35ZM51.9296 33.512H53.4296V29.8486L50.8603 32.46L51.9296 33.512ZM50.4656 33.5H45.8336V36.5H50.4656V33.5ZM46.8942 33.9393L44.7822 31.8273L42.6609 33.9487L44.7729 36.0607L46.8942 33.9393ZM45.2216 32.888V21.968H42.2216V32.888H45.2216ZM43.7216 23.468H47.1536V20.468H43.7216V23.468ZM45.6536 21.968V31.808H48.6536V21.968H45.6536ZM47.1536 33.308H50.6576V30.308H47.1536V33.308ZM51.656 32.9274L52.544 32.1354L50.5471 29.8966L49.6591 30.6886L51.656 32.9274ZM53.0456 31.016V21.968H50.0456V31.016H53.0456ZM51.5456 23.468H54.9776V20.468H51.5456V23.468ZM53.4776 21.968V35H56.4776V21.968H53.4776ZM54.9776 33.5H51.9296V36.5H54.9776V33.5ZM53.4296 35V33.512H50.4296V35H53.4296ZM50.8603 32.46L49.3963 33.948L51.5348 36.052L52.9988 34.564L50.8603 32.46ZM60.8008 35V36.5H62.3008V35H60.8008ZM57.3688 35H55.8688V36.5H57.3688V35ZM57.3688 17.168V15.668H55.8688V17.168H57.3688ZM60.8008 17.168H62.3008V15.668H60.8008V17.168ZM60.8008 33.5H57.3688V36.5H60.8008V33.5ZM58.8688 35V17.168H55.8688V35H58.8688ZM57.3688 18.668H60.8008V15.668H57.3688V18.668ZM59.3008 17.168V35H62.3008V17.168H59.3008ZM62.1312 21.488H60.6312V22.988H62.1312V21.488ZM62.1312 18.296V16.796H60.6312V18.296H62.1312ZM74.4672 18.296H75.9672V16.796H74.4672V18.296ZM74.4672 21.488V22.988H75.9672V21.488H74.4672ZM70.0752 21.488V19.988H68.5752V21.488H70.0752ZM70.0752 35V36.5H71.5752V35H70.0752ZM66.5232 35H65.0232V36.5H66.5232V35ZM66.5232 21.488H68.0232V19.988H66.5232V21.488ZM63.6312 21.488V18.296H60.6312V21.488H63.6312ZM62.1312 19.796H74.4672V16.796H62.1312V19.796ZM72.9672 18.296V21.488H75.9672V18.296H72.9672ZM74.4672 19.988H70.0752V22.988H74.4672V19.988ZM68.5752 21.488V35H71.5752V21.488H68.5752ZM70.0752 33.5H66.5232V36.5H70.0752V33.5ZM68.0232 35V21.488H65.0232V35H68.0232ZM66.5232 19.988H62.1312V22.988H66.5232V19.988ZM82.193 32.216V33.716H83.693V32.216H82.193ZM82.193 30.464V28.964H80.693V30.464H82.193ZM85.505 30.464H87.005V28.964H85.505V30.464ZM85.505 32.888L86.5717 33.9426L87.005 33.5043V32.888H85.505ZM83.417 35V36.5H84.0433L84.4837 36.0546L83.417 35ZM76.601 35L75.5343 36.0546L75.9747 36.5H76.601V35ZM74.513 32.888H73.013V33.5043L73.4463 33.9426L74.513 32.888ZM74.513 24.08L73.4463 23.0254L73.013 23.4637V24.08H74.513ZM76.601 21.968V20.468H75.9747L75.5343 20.9134L76.601 21.968ZM83.417 21.968L84.4837 20.9134L84.0433 20.468H83.417V21.968ZM85.505 24.08H87.005V23.4637L86.5717 23.0254L85.505 24.08ZM85.505 29.12V30.62H87.005V29.12H85.505ZM77.873 29.12V27.62H76.373V29.12H77.873ZM77.873 32.216H76.373V33.716H77.873V32.216ZM82.193 24.752H83.693V23.252H82.193V24.752ZM77.873 24.752V23.252H76.373V24.752H77.873ZM77.873 27.392H76.373V28.892H77.873V27.392ZM82.193 27.392V28.892H83.693V27.392H82.193ZM83.693 32.216V30.464H80.693V32.216H83.693ZM82.193 31.964H85.505V28.964H82.193V31.964ZM84.005 30.464V32.888H87.005V30.464H84.005ZM84.4383 31.8334L82.3503 33.9454L84.4837 36.0546L86.5717 33.9426L84.4383 31.8334ZM83.417 33.5H76.601V36.5H83.417V33.5ZM77.6677 33.9454L75.5797 31.8334L73.4463 33.9426L75.5343 36.0546L77.6677 33.9454ZM76.013 32.888V24.08H73.013V32.888H76.013ZM75.5797 25.1346L77.6677 23.0226L75.5343 20.9134L73.4463 23.0254L75.5797 25.1346ZM76.601 23.468H83.417V20.468H76.601V23.468ZM82.3503 23.0226L84.4383 25.1346L86.5717 23.0254L84.4837 20.9134L82.3503 23.0226ZM84.005 24.08V29.12H87.005V24.08H84.005ZM85.505 27.62H77.873V30.62H85.505V27.62ZM76.373 29.12V32.216H79.373V29.12H76.373ZM77.873 33.716H82.193V30.716H77.873V33.716ZM82.193 23.252H77.873V26.252H82.193V23.252ZM76.373 24.752V27.392H79.373V24.752H76.373ZM77.873 28.892H82.193V25.892H77.873V28.892ZM83.693 27.392V24.752H80.693V27.392H83.693ZM95.1326 31.88V33.38H96.6326V31.88H95.1326ZM95.1326 29.792V28.292H93.6326V29.792H95.1326ZM98.4446 29.792H99.9446V28.292H98.4446V29.792ZM98.4446 32.888L99.5113 33.9426L99.9446 33.5043V32.888H98.4446ZM96.3566 35V36.5H96.9829L97.4233 36.0546L96.3566 35ZM89.7326 35L88.6659 36.0546L89.1062 36.5H89.7326V35ZM87.6446 32.888H86.1446V33.5043L86.5779 33.9426L87.6446 32.888ZM87.6446 24.08L86.5779 23.0254L86.1446 23.4637V24.08H87.6446ZM89.7326 21.968V20.468H89.1062L88.6659 20.9134L89.7326 21.968ZM96.3566 21.968L97.4233 20.9134L96.9829 20.468H96.3566V21.968ZM98.4446 24.08H99.9446V23.4637L99.5113 23.0254L98.4446 24.08ZM98.4446 27.152V28.652H99.9446V27.152H98.4446ZM95.1326 27.152H93.6326V28.652H95.1326V27.152ZM95.1326 25.064H96.6326V23.564H95.1326V25.064ZM91.0046 25.064V23.564H89.5046V25.064H91.0046ZM91.0046 31.88H89.5046V33.38H91.0046V31.88ZM96.6326 31.88V29.792H93.6326V31.88H96.6326ZM95.1326 31.292H98.4446V28.292H95.1326V31.292ZM96.9446 29.792V32.888H99.9446V29.792H96.9446ZM97.3779 31.8334L95.2899 33.9454L97.4233 36.0546L99.5113 33.9426L97.3779 31.8334ZM96.3566 33.5H89.7326V36.5H96.3566V33.5ZM90.7993 33.9454L88.7113 31.8334L86.5779 33.9426L88.6659 36.0546L90.7993 33.9454ZM89.1446 32.888V24.08H86.1446V32.888H89.1446ZM88.7113 25.1346L90.7993 23.0226L88.6659 20.9134L86.5779 23.0254L88.7113 25.1346ZM89.7326 23.468H96.3566V20.468H89.7326V23.468ZM95.2899 23.0226L97.3779 25.1346L99.5113 23.0254L97.4233 20.9134L95.2899 23.0226ZM96.9446 24.08V27.152H99.9446V24.08H96.9446ZM98.4446 25.652H95.1326V28.652H98.4446V25.652ZM96.6326 27.152V25.064H93.6326V27.152H96.6326ZM95.1326 23.564H91.0046V26.564H95.1326V23.564ZM89.5046 25.064V31.88H92.5046V25.064H89.5046ZM91.0046 33.38H95.1326V30.38H91.0046V33.38Z" fill="black" fill-opacity="0.65" mask="url(#path-16-outside-1_5_79)"/>
</g>
<defs>
<filter id="filter0_f_5_79" x="7.4538" y="4.43031" width="40.3026" height="32.8704" filterUnits="userSpaceOnUse" color-interpolation-filters="sRGB">
<feFlood flood-opacity="0" result="BackgroundImageFix"/>
<feBlend mode="normal" in="SourceGraphic" in2="BackgroundImageFix" result="shape"/>
<feGaussianBlur stdDeviation="0.5" result="effect1_foregroundBlur_5_79"/>
</filter>
<filter id="filter1_f_5_79" x="0.453857" y="12.671" width="54.3025" height="46.8704" filterUnits="userSpaceOnUse" color-interpolation-filters="sRGB">
<feFlood flood-opacity="0" result="BackgroundImageFix"/>
<feBlend mode="normal" in="SourceGraphic" in2="BackgroundImageFix" result="shape"/>
<feGaussianBlur stdDeviation="4" result="effect1_foregroundBlur_5_79"/>
</filter>
<filter id="filter2_f_5_79" x="66.2437" y="4.43031" width="40.3026" height="32.8704" filterUnits="userSpaceOnUse" color-interpolation-filters="sRGB">
<feFlood flood-opacity="0" result="BackgroundImageFix"/>
<feBlend mode="normal" in="SourceGraphic" in2="BackgroundImageFix" result="shape"/>
<feGaussianBlur stdDeviation="0.5" result="effect1_foregroundBlur_5_79"/>
</filter>
<filter id="filter3_f_5_79" x="59.2437" y="12.671" width="54.3025" height="46.8704" filterUnits="userSpaceOnUse" color-interpolation-filters="sRGB">
<feFlood flood-opacity="0" result="BackgroundImageFix"/>
<feBlend mode="normal" in="SourceGraphic" in2="BackgroundImageFix" result="shape"/>
<feGaussianBlur stdDeviation="4" result="effect1_foregroundBlur_5_79"/>
</filter>
<filter id="filter4_f_5_79" x="36.8488" y="4.43031" width="40.3025" height="48.1112" filterUnits="userSpaceOnUse" color-interpolation-filters="sRGB">
<feFlood flood-opacity="0" result="BackgroundImageFix"/>
<feBlend mode="normal" in="SourceGraphic" in2="BackgroundImageFix" result="shape"/>
<feGaussianBlur stdDeviation="0.5" result="effect1_foregroundBlur_5_79"/>
</filter>
<filter id="filter5_f_5_79" x="29.8488" y="12.671" width="54.3025" height="46.8705" filterUnits="userSpaceOnUse" color-interpolation-filters="sRGB">
<feFlood flood-opacity="0" result="BackgroundImageFix"/>
<feBlend mode="normal" in="SourceGraphic" in2="BackgroundImageFix" result="shape"/>
<feGaussianBlur stdDeviation="4" result="effect1_foregroundBlur_5_79"/>
</filter>
<filter id="filter6_d_5_79" x="11.656" y="16.768" width="90.1885" height="24.632" filterUnits="userSpaceOnUse" color-interpolation-filters="sRGB">
<feFlood flood-opacity="0" result="BackgroundImageFix"/>
<feColorMatrix in="SourceAlpha" type="matrix" values="0 0 0 0 0 0 0 0 0 0 0 0 0 0 0 0 0 0 127 0" result="hardAlpha"/>
<feOffset dy="3"/>
<feGaussianBlur stdDeviation="1.7"/>
<feComposite in2="hardAlpha" operator="out"/>
<feColorMatrix type="matrix" values="0 0 0 0 1 0 0 0 0 1 0 0 0 0 1 0 0 0 0.25 0"/>
<feBlend mode="normal" in2="BackgroundImageFix" result="effect1_dropShadow_5_79"/>
<feBlend mode="normal" in="SourceGraphic" in2="effect1_dropShadow_5_79" result="shape"/>
</filter>
</defs>
</svg>
