<svg width="114" height="60" viewBox="0 0 114 60" fill="none" xmlns="http://www.w3.org/2000/svg">
<path d="M35.4169 16.0691L53.4169 2.66771C55.5433 1.08454 58.4567 1.08454 60.5831 2.66771L78.5831 16.0691C80.1039 17.2014 81 18.9858 81 20.8818V34.7468C81 36.6428 80.1039 38.4272 78.5831 39.5594L60.5831 52.9609C58.4567 54.544 55.5433 54.544 53.4169 52.9609L35.4169 39.5594C33.8961 38.4272 33 36.6428 33 34.7468V20.8818C33 18.9858 33.8961 17.2014 35.4169 16.0691Z" fill="#4783BB"/>
<path d="M36.0141 16.8712L54.0141 3.46982C55.7861 2.15051 58.2139 2.15051 59.9859 3.46982L77.9859 16.8712C79.2532 17.8148 80 19.3018 80 20.8818V34.7468C80 36.3268 79.2532 37.8138 77.9859 38.7573L59.9859 52.1588C58.2139 53.4781 55.7861 53.4781 54.0141 52.1588L36.0141 38.7573C34.7468 37.8138 34 36.3268 34 34.7468V20.8818C34 19.3018 34.7468 17.8148 36.0141 16.8712Z" stroke="black" stroke-opacity="0.65" stroke-width="2"/>
<path d="M6.36335 16.1869L23.9684 2.77126C26.1165 1.13431 29.0936 1.13431 31.2417 2.77126L48.8467 16.1869C50.336 17.3218 51.2101 19.0868 51.2101 20.9592V35.0408C51.2101 36.9132 50.336 38.6782 48.8467 39.8131L31.2417 53.2287C29.0936 54.8657 26.1165 54.8657 23.9684 53.2287L6.36335 39.8131C4.87409 38.6782 4 36.9132 4 35.0408V20.9592C4 19.0868 4.87409 17.3218 6.36335 16.1869Z" fill="#4783BB"/>
<path d="M6.96946 16.9823L24.5745 3.56664C26.3646 2.20252 28.8455 2.20252 30.6356 3.56664L48.2406 16.9823C49.4817 17.928 50.2101 19.3989 50.2101 20.9592V35.0408C50.2101 36.6011 49.4817 38.072 48.2406 39.0177L30.6356 52.4334C28.8455 53.7975 26.3646 53.7975 24.5745 52.4334L6.96946 39.0177C5.72841 38.072 5 36.6011 5 35.0408V20.9592C5 19.3989 5.72841 17.928 6.96946 16.9823Z" stroke="black" stroke-opacity="0.65" stroke-width="2"/>
<path d="M65.1533 16.1869L82.7583 2.77126C84.9064 1.13431 87.8835 1.13431 90.0316 2.77126L107.637 16.1869C109.126 17.3218 110 19.0868 110 20.9592V35.0408C110 36.9132 109.126 38.6782 107.637 39.8131L90.0316 53.2287C87.8835 54.8657 84.9064 54.8657 82.7583 53.2287L65.1533 39.8131C63.664 38.6782 62.7899 36.9132 62.7899 35.0408V20.9592C62.7899 19.0868 63.664 17.3218 65.1533 16.1869Z" fill="#4783BB"/>
<path d="M65.7594 16.9823L83.3644 3.56664C85.1545 2.20252 87.6354 2.20252 89.4255 3.56664L107.031 16.9823C108.272 17.928 109 19.3989 109 20.9592V35.0408C109 36.6011 108.272 38.072 107.031 39.0177L89.4255 52.4334C87.6354 53.7975 85.1545 53.7975 83.3644 52.4334L65.7594 39.0177C64.5183 38.072 63.7899 36.6011 63.7899 35.0408V20.9592C63.7899 19.3989 64.5183 17.928 65.7594 16.9823Z" stroke="black" stroke-opacity="0.65" stroke-width="2"/>
</svg>